<svg viewBox="0 0 243 74" fill="none" xmlns="http://www.w3.org/2000/svg">
                <path
                  d="M15.3978 36.9996C15.3978 26.7999 23.6639 18.5315 33.8607 18.5315C36.0926 18.5294 38.3062 18.933 40.3938 19.7227C40.7333 18.8873 41.2505 18.1359 41.9095 17.5206C39.3574 16.4649 36.6221 15.9232 33.8603 15.9264C22.2253 15.9264 12.793 25.3613 12.793 36.9996C12.7867 41.0508 13.9535 45.0171 16.1523 48.4192C16.6253 47.646 17.2611 46.9852 18.0155 46.4829C16.2976 43.6185 15.3926 40.3399 15.3978 36.9996ZM51.4106 25.3405C50.9331 26.1047 50.2956 26.7563 49.542 27.2505C51.3644 30.1753 52.328 33.5536 52.3228 37C52.3228 47.1997 44.0567 55.4681 33.8599 55.4681C31.5508 55.4707 29.2617 55.0391 27.1121 54.1955C26.74 55.0222 26.1919 55.7577 25.5062 56.3505C28.1435 57.4906 30.9868 58.0771 33.8599 58.0736C45.4953 58.0736 54.9272 48.6386 54.9272 37.0004C54.9344 32.8513 53.7106 28.7934 51.4106 25.3405Z"
                  fill="#F49E39" />
                <path
                  d="M46.2536 25.6409C48.2931 25.6409 49.9466 23.987 49.9466 21.9468C49.9466 19.9067 48.2931 18.2528 46.2536 18.2528C44.214 18.2528 42.5605 19.9067 42.5605 21.9468C42.5605 23.987 44.214 25.6409 46.2536 25.6409Z"
                  fill="#F49E39" />
                <path
                  d="M21.3688 55.5117C23.4084 55.5117 25.0618 53.8578 25.0618 51.8177C25.0618 49.7775 23.4084 48.1237 21.3688 48.1237C19.3292 48.1237 17.6758 49.7775 17.6758 51.8177C17.6758 53.8578 19.3292 55.5117 21.3688 55.5117Z"
                  fill="#F49E39" />
                <path
                  d="M33.8602 23.4384C26.3728 23.4384 20.3027 29.5101 20.3027 36.9995C20.3027 44.489 26.3728 50.5607 33.8602 50.5607C41.3475 50.5607 47.4176 44.489 47.4176 36.9995C47.4176 29.5101 41.3479 23.4384 33.8602 23.4384ZM36.963 42.9236C36.0804 43.6299 34.8529 43.9829 33.2796 43.9829C31.8306 43.9829 30.5484 43.7105 29.4335 43.1652V40.4891C30.3498 40.898 31.1257 41.1859 31.7605 41.3532C32.3953 41.5205 32.9759 41.6039 33.5023 41.6039C34.1338 41.6039 34.6185 41.4829 34.9563 41.2414C35.2937 40.9998 35.4627 40.6406 35.4627 40.1633C35.4664 39.9085 35.3881 39.6593 35.2395 39.4524C35.091 39.245 34.8725 39.0452 34.5847 38.8528C34.2969 38.6609 33.71 38.3542 32.8241 37.9329C31.9941 37.5428 31.3717 37.1677 30.9567 36.8085C30.5484 36.4576 30.211 36.0317 29.9628 35.5539C29.715 35.077 29.5911 34.5192 29.5911 33.8813C29.5911 32.6793 29.9982 31.7347 30.8128 31.0471C31.627 30.3596 32.7528 30.0158 34.1897 30.0158C34.8958 30.0158 35.569 30.0992 36.2101 30.2665C36.8512 30.4338 37.5215 30.6691 38.2214 30.9729L37.2925 33.2125C36.568 32.915 35.9686 32.7076 35.4948 32.59C35.0377 32.4744 34.5681 32.4152 34.0967 32.4135C33.5515 32.4135 33.1336 32.5403 32.8424 32.7944C32.5513 33.0485 32.4057 33.3798 32.4057 33.7887C32.4057 34.0427 32.4645 34.2643 32.5822 34.4529C32.6998 34.6419 32.8871 34.8246 33.144 35.0011C33.4009 35.1776 34.0095 35.4951 34.9692 35.9536C36.2389 36.5606 37.109 37.1694 37.5794 37.7793C38.0499 38.3897 38.2856 39.1374 38.2856 40.0235C38.2868 41.251 37.8456 42.2172 36.963 42.9236Z"
                  fill="#231F20" />
                <path
                  d="M146.048 49.8743C147.16 49.8743 148.061 48.9728 148.061 47.8608C148.061 46.7488 147.16 45.8473 146.048 45.8473C144.936 45.8473 144.035 46.7488 144.035 47.8608C144.035 48.9728 144.936 49.8743 146.048 49.8743Z"
                  fill="#F5A11D" />
                <path
                  d="M64.6152 44.5237V43.3668C64.6152 43.0296 64.7833 42.8607 65.1212 42.8607H66.7474C67.0845 42.8607 67.2534 43.0296 67.2534 43.3668V44.3067C67.2534 46.4759 68.3253 47.5606 70.4701 47.5606H73.6505C75.7948 47.5606 76.8671 46.4525 76.8671 44.2346V43.0054C76.8671 41.2702 75.4331 40.1375 72.5664 39.6072C71.3546 39.389 70.1494 39.1358 68.9522 38.8479C67.7472 38.5588 66.7233 37.9984 65.8803 37.1669C65.0365 36.3354 64.6152 35.1968 64.6152 33.7503V31.9788C64.6152 30.3158 65.0907 29.0087 66.043 28.0562C66.9944 27.1045 68.302 26.6281 69.9645 26.6281H73.9762C75.6146 26.6281 76.9155 27.1041 77.8794 28.0562C78.8429 29.0087 79.3251 30.3158 79.3251 31.9788V32.8825C79.3251 33.2438 79.1683 33.4249 78.855 33.4249H77.1925C76.8792 33.4249 76.7228 33.2443 76.7228 32.8825V32.2317C76.7228 30.0388 75.6505 28.9419 73.5061 28.9419H70.4342C68.2895 28.9419 67.2175 30.0868 67.2175 32.3765V33.8225C67.2175 35.0516 68.0246 35.8957 69.6392 36.3534C70.362 36.5465 71.157 36.7209 72.0246 36.8774C72.8922 37.0343 73.7652 37.2391 74.6448 37.4919C75.5241 37.7452 76.3253 38.0585 77.0482 38.4319C77.771 38.8058 78.3549 39.3719 78.8012 40.1312C79.2467 40.8906 79.4698 41.8122 79.4698 42.897V44.5237C79.4698 46.1867 78.9877 47.4943 78.0242 48.4464C77.0603 49.3989 75.7593 49.8745 74.121 49.8745H69.9645C68.3258 49.8745 67.0244 49.3989 66.0613 48.4464C65.0966 47.4947 64.6152 46.1867 64.6152 44.5237ZM97.504 49.8745H86.1555C85.8177 49.8745 85.6496 49.7064 85.6496 49.3684V27.135C85.6496 26.7979 85.8177 26.6289 86.1555 26.6289H97.504C97.841 26.6289 98.01 26.7979 98.01 27.135V28.4363C98.01 28.7742 97.841 28.9423 97.504 28.9423H88.6494C88.4083 28.9423 88.2878 29.0508 88.2878 29.2678V36.5703C88.2878 36.7873 88.4079 36.8957 88.6494 36.8957H96.3837C96.7207 36.8957 96.8896 37.0647 96.8896 37.4018V38.7031C96.8896 39.0411 96.7207 39.2092 96.3837 39.2092H88.6494C88.4083 39.2092 88.2878 39.3177 88.2878 39.5346V47.2348C88.2878 47.4517 88.4079 47.5602 88.6494 47.5602H97.504C97.841 47.5602 98.01 47.7292 98.01 48.0663V49.3676C98.01 49.7059 97.841 49.8745 97.504 49.8745ZM113.045 49.8745H108.708C107.045 49.8745 105.738 49.4043 104.786 48.4647C103.834 47.5247 103.358 46.2113 103.358 44.5241V31.9793C103.358 30.2925 103.834 28.9786 104.786 28.0387C105.738 27.0987 107.045 26.6289 108.708 26.6289H113.045C114.707 26.6289 116.014 27.0991 116.966 28.0387C117.918 28.9786 118.394 30.2925 118.394 31.9793V33.7508C118.394 34.0887 118.225 34.2568 117.888 34.2568H116.262C115.924 34.2568 115.756 34.0887 115.756 33.7508V32.0877C115.756 29.9908 114.744 28.9423 112.72 28.9423H108.997C106.997 28.9423 105.997 29.9908 105.997 32.0877V44.4156C105.997 46.5126 106.997 47.561 108.997 47.561H112.72C114.744 47.561 115.756 46.5126 115.756 44.4156V42.7526C115.756 42.4155 115.924 42.2465 116.262 42.2465H117.888C118.225 42.2465 118.394 42.4155 118.394 42.7526V44.5241C118.394 46.2113 117.918 47.5247 116.966 48.4647C116.014 49.4043 114.707 49.8745 113.045 49.8745ZM136.356 26.6289H137.982C138.319 26.6289 138.488 26.7858 138.488 27.0991V44.5241C138.488 46.2113 138.018 47.5247 137.078 48.4647C136.139 49.4047 134.838 49.8745 133.175 49.8745H129.164C127.501 49.8745 126.194 49.4043 125.242 48.4647C124.29 47.5247 123.814 46.2113 123.814 44.5241V27.135C123.814 26.7979 123.982 26.6289 124.32 26.6289H125.946C126.284 26.6289 126.452 26.7979 126.452 27.135V44.4156C126.452 46.5126 127.452 47.561 129.452 47.561H132.85C134.873 47.561 135.886 46.5126 135.886 44.4156V27.135C135.886 26.7974 136.042 26.6289 136.356 26.6289ZM146.872 43.6058H145.246C144.908 43.6058 144.74 43.4377 144.74 43.0997V27.135C144.74 26.7979 144.908 26.6289 145.246 26.6289H153.559C155.222 26.6289 156.535 27.1049 157.498 28.057C158.462 29.0095 158.944 30.3167 158.944 31.9797V35.2694C158.944 36.6195 158.619 37.7339 157.968 38.6134C157.317 39.4933 156.414 40.0774 155.257 40.367V40.5117L159.45 49.2966C159.667 49.6826 159.546 49.8749 159.088 49.8749H157.462C157.052 49.8749 156.751 49.7068 156.558 49.3688L152.51 40.6202H147.74C147.498 40.6202 147.378 40.7287 147.378 40.9457V43.1006C147.379 43.4377 147.21 43.6058 146.872 43.6058ZM147.74 38.4144H153.197C155.269 38.4144 156.306 37.3785 156.306 35.3053V32.0877C156.306 29.9908 155.269 28.9423 153.197 28.9423H147.74C147.499 28.9423 147.378 29.0508 147.378 29.2678V38.089C147.379 38.3059 147.499 38.4144 147.74 38.4144ZM167.69 27.135V49.3684C167.69 49.7064 167.521 49.8745 167.184 49.8745H165.558C165.22 49.8745 165.052 49.7064 165.052 49.3684V27.135C165.052 26.7979 165.22 26.6289 165.558 26.6289H167.184C167.521 26.6289 167.69 26.7974 167.69 27.135ZM179.978 49.8745H178.352C178.014 49.8745 177.846 49.7064 177.846 49.3684V29.2678C177.846 29.0508 177.725 28.9423 177.485 28.9423H172.57C172.208 28.9423 172.027 28.7738 172.027 28.4363V27.135C172.027 26.7979 172.208 26.6289 172.57 26.6289H185.761C186.123 26.6289 186.303 26.7979 186.303 27.135V28.4363C186.303 28.7742 186.123 28.9423 185.761 28.9423H180.846C180.605 28.9423 180.484 29.0508 180.484 29.2678V49.3684C180.484 49.7059 180.315 49.8745 179.978 49.8745ZM193.278 27.135V49.3684C193.278 49.7064 193.109 49.8745 192.772 49.8745H191.146C190.808 49.8745 190.64 49.7064 190.64 49.3684V27.135C190.64 26.7979 190.808 26.6289 191.146 26.6289H192.772C193.109 26.6289 193.278 26.7974 193.278 27.135ZM198.627 49.3684V48.0671C198.627 47.6332 198.699 47.3203 198.844 47.1271L210.047 29.2319V29.0871H199.602C199.264 29.0871 199.096 28.919 199.096 28.581V27.135C199.096 26.7979 199.264 26.6289 199.602 26.6289H212.396C212.733 26.6289 212.902 26.7979 212.902 27.135V28.8702C212.902 29.2561 212.806 29.5932 212.613 29.8823L201.699 47.2715V47.4163H212.758C213.095 47.4163 213.264 47.5731 213.264 47.8865V49.3325C213.264 49.6938 213.095 49.8749 212.758 49.8749H199.133C198.795 49.8745 198.627 49.7059 198.627 49.3684ZM230.287 49.8745H218.938C218.6 49.8745 218.432 49.7064 218.432 49.3684V27.135C218.432 26.7979 218.6 26.6289 218.938 26.6289H230.287C230.624 26.6289 230.793 26.7979 230.793 27.135V28.4363C230.793 28.7742 230.624 28.9423 230.287 28.9423H221.432C221.191 28.9423 221.07 29.0508 221.07 29.2678V36.5703C221.07 36.7873 221.191 36.8957 221.432 36.8957H229.166C229.503 36.8957 229.672 37.0647 229.672 37.4018V38.7031C229.672 39.0411 229.503 39.2092 229.166 39.2092H221.432C221.191 39.2092 221.07 39.3177 221.07 39.5346V47.2348C221.07 47.4517 221.191 47.5602 221.432 47.5602H230.287C230.624 47.5602 230.793 47.7292 230.793 48.0663V49.3676C230.793 49.7059 230.624 49.8745 230.287 49.8745Z"
                  fill="#231F20" />
              </svg>
